# xmcd
#
# Track frame offsets:
#	150
#	8608
#	18981
#	32058
#	43236
#	52905
#	63331
#	72744
#	82863
#	92202
#	100598
#	110061
#	119072
#	133179
#	142628
#	152220
#	159527
#	166574
#	175475
#	186631
#	195530
#	204804
#	216275
#	227083
#	239322
#	247133
#
# Disc length: 3411 seconds
#
# Revision: 0
# Processed by: cddbd v1.5.2PL0 Copyright (c) Steve Scherf et al.
# Submitted via: EZCDAudioConverter 2.1.7.1
#
DISCID=6b0d511a
DTITLE=V/A - Beach Party: Garpax Surf N' Drag
DYEAR=2004
DGENRE=
TTITLE0=Dave Kinzie - Beach Party (All Summer Long)
TTITLE1=Kenny and The Sultans - The Wipe Out
TTITLE2=The Captivations - Red Hot Scrambler-Go!
TTITLE3=Vince and The Waikiki Rumblers - Waikiki Rumble
TTITLE4=Surf Bunnies - Summertime Is Surfin' Time
TTITLE5=The Torquays - Escondido
TTITLE6=Sanford and The Sandies - Let's Go To The Beach
TTITLE7=Gene Moles - Kaha Huna (Goddess Of Surfing)
TTITLE8=The Captivations - Little Bitty King Of The Road
TTITLE9=Kenny and The Ho-Daddies - Surf Dance
TTITLE10=Judy Russell - Surfin' With Jimmy
TTITLE11=Rockets Band - Countdown
TTITLE12=Lord Douglas Byron - Big Bad Ho Dad
TTITLE13=Gary Paxton - The Scavenger
TTITLE14=Bucky and The Dales - Firewater
TTITLE15=The Fashions - Surfin' Back To School
TTITLE16=The Captivations - Speedshift
TTITLE17=Kenny and The Sultans - With Vigor
TTITLE18=The Fashions - Surfer's Memories
TTITLE19=Lonnie McLaughlin and The Premiers - War Path
TTITLE20=The Captivations - Wild Wild Mustang
TTITLE21=The Torquays - Surfer's Cry
TTITLE22=Rockets Band - Warrior
TTITLE23=Gary Paxton and The ?s - Two Hump Dual Bump Camel Named Robert E. Lee
TTITLE24=Kenny and The Ho-Daddies - Goofy Guitar
TTITLE25=The Zip-Codes - Dear Henry Ford
EXTD=
EXTT0=
EXTT1=
EXTT2=
EXTT3=
EXTT4=
EXTT5=
EXTT6=
EXTT7=
EXTT8=
EXTT9=
EXTT10=
EXTT11=
EXTT12=
EXTT13=
EXTT14=
EXTT15=
EXTT16=
EXTT17=
EXTT18=
EXTT19=
EXTT20=
EXTT21=
EXTT22=
EXTT23=
EXTT24=
EXTT25=
PLAYORDER=
